<svg width="16" height="16" viewBox="0 0 16 16" fill="none" xmlns="http://www.w3.org/2000/svg">
<g opacity="0.5">
<path d="M7.29167 1.28711C3.98586 1.28711 1.29297 3.97999 1.29297 7.28582C1.29297 10.5916 3.98586 13.2898 7.29167 13.2898C8.70368 13.2898 10.0023 12.7949 11.0286 11.9733L13.5273 14.4707C13.6534 14.5916 13.8219 14.6583 13.9965 14.6565C14.1712 14.6547 14.3382 14.5846 14.4618 14.4612C14.5854 14.3377 14.6557 14.1708 14.6578 13.9962C14.6598 13.8215 14.5934 13.653 14.4727 13.5267L11.974 11.0281C12.7962 10.0001 13.2917 8.69946 13.2917 7.28582C13.2917 3.97999 10.5975 1.28711 7.29167 1.28711ZM7.29167 2.62046C9.87689 2.62046 11.957 4.7006 11.957 7.28582C11.957 9.87104 9.87689 11.9564 7.29167 11.9564C4.70644 11.9564 2.6263 9.87104 2.6263 7.28582C2.6263 4.7006 4.70644 2.62046 7.29167 2.62046Z" fill="white"/>
</g>
</svg>
