<svg width="16" height="16" viewBox="0 0 16 16" fill="none" xmlns="http://www.w3.org/2000/svg">
<g clip-path="url(#clip0_1_36)">
<path d="M10.7493 14.9944H5.24927C4.52627 14.9944 3.67727 14.5044 3.31627 13.8784L0.566266 9.11636C0.199266 8.48036 0.199266 7.52036 0.566266 6.88386L3.31677 2.12186C3.67777 1.49586 4.52677 1.00586 5.24977 1.00586H10.7493C11.4723 1.00586 12.3213 1.49586 12.6823 2.12186L15.4323 6.88386C15.7993 7.51986 15.7993 8.47986 15.4323 9.11636L12.6818 13.8784C12.3213 14.5044 11.4718 14.9944 10.7493 14.9944ZM5.24927 2.00536C4.87677 2.00536 4.36827 2.29886 4.18227 2.62136L1.43177 7.38336C1.24577 7.70586 1.24577 8.29336 1.43177 8.61586L4.18177 13.3779C4.36827 13.7009 4.87677 13.9939 5.24877 13.9939H10.7493C11.1218 13.9939 11.6303 13.7004 11.8163 13.3779L14.5668 8.61586C14.7528 8.29336 14.7528 7.70586 14.5668 7.38336L11.8168 2.62136C11.6303 2.29836 11.1218 2.00536 10.7498 2.00536H5.24927ZM7.99927 10.9579C6.36777 10.9579 5.04077 9.63086 5.04077 7.99986C5.04077 6.36886 6.36777 5.04186 7.99927 5.04186C9.63077 5.04186 10.9578 6.36886 10.9578 7.99986C10.9578 9.63086 9.63077 10.9579 7.99927 10.9579ZM7.99927 6.04186C6.91927 6.04186 6.04077 6.92036 6.04077 7.99986C6.04077 9.07936 6.91927 9.95786 7.99927 9.95786C9.07927 9.95786 9.95777 9.07936 9.95777 7.99986C9.95777 6.92036 9.07927 6.04186 7.99927 6.04186Z" fill="white" stroke="white" stroke-width="0.1"/>
</g>
<defs>
<clipPath id="clip0_1_36">
<rect width="16" height="16" fill="white"/>
</clipPath>
</defs>
</svg>
